# xmcd CD database file
#
# Track frame offsets:
#	150
#	14475
#	31265
#	48400
#	64370
#	82285
#	98762
#	119582
#	137770
#	155252
#	175960
#	190760
#	208415
#	221775
#	234407
#	248910
#	262358
#	275745
#	292088
#	308583
#	322013
#
# Disc length: 4453 seconds
#
# Revision: 0
# Processed by: cddbd v1.5.2PL0 Copyright (c) Steve Scherf et al.
# Submitted via: CDex 1.70beta2
#
DISCID=51116315
DTITLE=ChartBreakers - ChartBreakers CGC-513
DYEAR=1900
DGENRE=Country
TTITLE0=Alabama - Southern Star
TTITLE1=Mark Chesnutt - I'll Think Of Something
TTITLE2=Joe Diffie - If You Want Me To
TTITLE3=Holly Dunn - Daddy's Hands
TTITLE4=Ronnie Milsap - She Keeps The Home Fires Burning
TTITLE5=Lorrie Morgan - A Picture Of Me
TTITLE6=Reba McEntire - Fallin' Out Of Love
TTITLE7=Paul Overstreet - Heroes
TTITLE8=Restless Heart - Long Lost Friend
TTITLE9=Lionel Richie and Alabama - Deep River Woman
TTITLE10=Alabama - Take A Little Trip
TTITLE11=Garth Brooks - Rodeo
TTITLE12=Brooks and Dunn - My Next Broken Heart
TTITLE13=Joe Diffie -  New Way (To Light Up An Old Flame)
TTITLE14=Alan Jackson - I'd Love You All Over Again
TTITLE15=Hal Ketchum - Small Town Saturday Night
TTITLE16=Lorrie Morgan - Except For Monday
TTITLE17=Reba McEntire - For My Broken Heart
TTITLE18=Restless Heart - When She Cries
TTITLE19=Restless Heart - Why Does It Have To Be (Wrong Or Right)
TTITLE20=Trisha Yearwood - That's What I Like About You
EXTD=YEAR: 1900
EXTT0=
EXTT1=
EXTT2=
EXTT3=
EXTT4=
EXTT5=
EXTT6=
EXTT7=
EXTT8=
EXTT9=
EXTT10=
EXTT11=
EXTT12=
EXTT13=
EXTT14=
EXTT15=
EXTT16=
EXTT17=
EXTT18=
EXTT19=
EXTT20=
PLAYORDER=
